<svg xmlns="http://www.w3.org/2000/svg" width="256" height="256" viewBox="0 0 256 256">
  <defs>
    <linearGradient id="bg" x1="0" y1="0" x2="1" y2="1">
      <stop offset="0%" stop-color="#1a1a4a"/>
      <stop offset="100%" stop-color="#0e0e2a"/>
    </linearGradient>
    <linearGradient id="pi" x1="0" y1="0" x2="0" y2="1">
      <stop offset="0%" stop-color="#818cf8"/>
      <stop offset="100%" stop-color="#6366f1"/>
    </linearGradient>
  </defs>

  <!-- Background circle -->
  <circle cx="128" cy="128" r="120" fill="url(#bg)" stroke="#6366f1" stroke-width="4"/>

  <!-- Glow -->
  <circle cx="128" cy="128" r="80" fill="#6366f1" opacity="0.08"/>

  <!-- Pi crossbar (head) -->
  <rect x="52" y="72" width="152" height="56" rx="28" fill="url(#pi)"/>

  <!-- Left leg -->
  <rect x="82" y="100" width="20" height="100" rx="10" fill="url(#pi)"/>

  <!-- Right leg (curved) -->
  <path d="M 152 100 C 152 140, 160 170, 166 200" stroke="url(#pi)" stroke-width="20" stroke-linecap="round" fill="none"/>

  <!-- Left eye -->
  <ellipse cx="100" cy="98" rx="14" ry="13" fill="#0e0e2a"/>
  <circle cx="100" cy="98" r="8" fill="#c7d2fe"/>
  <circle cx="103" cy="95" r="3" fill="white" opacity="0.6"/>

  <!-- Right eye -->
  <ellipse cx="156" cy="98" rx="14" ry="13" fill="#0e0e2a"/>
  <circle cx="156" cy="98" r="8" fill="#c7d2fe"/>
  <circle cx="159" cy="95" r="3" fill="white" opacity="0.6"/>

  <!-- Smile -->
  <path d="M 112 115 Q 128 130 144 115" stroke="#c7d2fe" stroke-width="4" stroke-linecap="round" fill="none"/>

  <!-- Headset band -->
  <path d="M 56 88 C 56 40, 200 40, 200 88" stroke="#4f46e5" stroke-width="6" fill="none" stroke-linecap="round"/>

  <!-- Left earpiece -->
  <rect x="44" y="80" width="14" height="22" rx="7" fill="#4f46e5"/>

  <!-- Right earpiece -->
  <rect x="198" y="80" width="14" height="22" rx="7" fill="#4f46e5"/>

  <!-- Mic -->
  <path d="M 51 102 C 44 112, 60 120, 76 116" stroke="#4f46e5" stroke-width="3" fill="none" stroke-linecap="round"/>
  <circle cx="76" cy="116" r="5" fill="#818cf8"/>

  <!-- Antenna glow -->
  <circle cx="128" cy="44" r="6" fill="#818cf8" opacity="0.8"/>
</svg>